# xmcd
#
# Track frame offsets:
#	150
#	21824
#	40792
#	62499
#	79561
#	98612
#	115497
#	131215
#	148035
#	163264
#	177102
#	194419
#	212121
#	231891
#	254549
#	274270
#	290947
#
# Disc length: 4133 seconds
#
# Revision: 1
# Processed by: cddbd v1.5.2PL0 Copyright (c) Steve Scherf et al.
# Submitted via: audiograbber 1.83.01
#
DISCID=03102311
DTITLE=Various Artist - Ultimate 80s Dance Party [CD3]
DYEAR=2016
DGENRE=Pop
TTITLE0=Paul Young - I'm Gonna Tear Your Playhouse Down
TTITLE1=Martika - I Feel The Eart Move
TTITLE2=Bill Medley and Jennifer Warnes - (I've Head)The Time Of My Life
TTITLE3=Kenny Loggins - Footloose
TTITLE4=Eddie Murphy - Party All The Time
TTITLE5=Samantha Fox - Nothing's Gonna Stop Me Now
TTITLE6=Exposé - Point Of No Return
TTITLE7=Sinitta - Toy Boy
TTITLE8=Rob'n'Raz - Got To Get
TTITLE9=Run-D.M.C. - It's Tricky
TTITLE10=New Kids on the Block - Hangin' Tough
TTITLE11=Rob Base and DJ Ez Rock - It Takes Two
TTITLE12=Marvin Gaye - Joy
TTITLE13=Earth, Wind and Fire - System Of Survival
TTITLE14=The Limit - Say Yeah
TTITLE15=Bros - I Owe You Nothing
TTITLE16=The Pasadenas - Riding On A Train
EXTD=
EXTT0=
EXTT1=
EXTT2=
EXTT3=
EXTT4=
EXTT5=
EXTT6=
EXTT7=
EXTT8=
EXTT9=
EXTT10=
EXTT11=
EXTT12=
EXTT13=
EXTT14=
EXTT15=
EXTT16=
PLAYORDER=
